<svg id="Layer_2" data-name="Layer 2" xmlns="http://www.w3.org/2000/svg" viewBox="0 0 1956.19 2271.36"><defs><style>.cls-1{fill:#5f003d;}.cls-2{fill:#b06c49;}.cls-3{fill:#ffb774;}</style></defs><path class="cls-1" d="M886.24,875.39c85.8,380.74-165.48,756.89-275.3,756.85-33.57,0-59.55-34.73-131.93-31.43-55,2.51-85.94,24.62-120,8.45-24.23-11.5-13.62-25.08-45.69-51.09-36.78-29.83-67.78-25.8-80.86-52.61-7.67-15.7-.65-24.51-1.08-42.93-1.58-67.82-99.8-78-130.87-157.5-15-38.42,8-35.87-6-95.33-18.3-77.71-58.72-86.89-56.83-143.18,1.7-50.73,35.13-61.44,24.12-99.33-12.25-42.17-56.87-40-65.55-80.4-7.79-36.31,26.46-46.28,27.9-98.87,1.28-47-25.67-55.88-13.72-87.59C23.5,665.64,59.81,666,69,633,77.9,601.27,46.88,592.44,52.69,557c5-30.13,28.54-30.53,61.38-81.76,27.86-43.45,19.28-56.26,43.33-74.14,26.65-19.82,43.46-8.72,81.82-27.7,42.92-21.24,44.22-46.18,73.72-63.67,51.44-30.5,127.07.11,159.29,8.62C806.19,406.6,877.85,838.15,886.24,875.39Z"/><path class="cls-1" d="M1944.35,842.16c12.07,61.9,21.46,113.92-6.1,158.86-16.69,27.22-33.85,30.49-48.88,64.62-18.1,41.11-3.27,59.21-13.49,92.72C1857.4,1219,1792.72,1213,1739.25,1274c-58.89,67.15-14.74,113.44-63,172.85-70.13,86.27-176,4.33-301.57,93.71-77,54.82-92.17,124.78-180.77,144,0,0-39.09,8.48-86-.35-160.37-30.18-909-426.57-836.43-842,29.93-171.32,188.9-285.18,220.77-521,2.9-21.46,8.07-68.57,39.83-116.42C601.37,100.31,743.42,74.78,774.55,70.77c30.7-4,51.94-3.51,51.94-3.51C861,68,873.63,74.4,903.3,73.1a202.94,202.94,0,0,0,51.61-9.33c83.42-24.87,87.81-61.29,153-63.65,57.84-2.09,138.91,23.51,184,75.91,7.64,8.88,11.28,15.08,21.44,21.44,44.42,27.81,87-20.34,142-12.29,63.82,9.34,55.86,81.49,149.06,134.85,66.45,38,93.72,14.66,124.49,51.6,43.14,51.78.56,110.91,47.08,165.93,32.59,38.53,62.65,20.36,91.92,58.21,34,43.94,2.78,80.46,18.38,174.64C1899.52,750.16,1925.15,743.61,1944.35,842.16Z"/><path class="cls-2" d="M409.48,425.12c78.86-80.83,177.88-101.44,291.06-125,91.34-19,152.17-31.66,223.66-12.25C1053.62,323,1121.89,437.16,1203,572.81c47.37,79.21,119.22,218.7,150.13,407.49,20.76,126.83,38.95,237.92-15.32,355.41-25.3,54.77-62.15,93.42-134.81,168.51-140.68,145.37-211,218-284.93,232.85-239.37,47.91-469.63-316.46-511.66-383-77.07-121.95-75.18-203.74-74.22-223.41,2.16-44.2,13.38-56.88,16-107.48,5-96.25-30.49-148.6-47.12-211.09C266.24,681.1,317.89,519,409.48,425.12Z"/><path class="cls-1" d="M1315.76,739.58c-24.22,21.75-104.3-36.7-175.3-22-8.87,1.84-39.9,6.68-79.17.42a79.4,79.4,0,0,1-19.7-6c-46.28-20.46-47.73-60.75-83-65.27-30.39-3.9-36.39,25.11-78.6,29.78-44.35,4.91-83.67-22-95.71-31.2-42.43-32.23-32.59-61-75.72-88.32-30.23-19.17-42.08-9.49-62.36-28.85-26.57-25.37-13.66-49.07-33.68-89-28.1-55.94-75.12-52.37-89.85-94.31-14.6-41.59,15.9-89.91,35.41-110.65,83.58-88.87,315.91-40,472.2,58.07C1258.74,435.73,1355.73,703.7,1315.76,739.58Z"/><path class="cls-1" d="M296.39,561.66C228.34,728.1,282,890,284,889.64c1-.19-6.8-42.71,13.73-61.82,15.05-14,31.38-2.43,47.66-15.94,16.92-14,13.42-38.2,20.27-69.9,12.75-59,42.53-56.92,62.28-115.08,23.7-69.78-10.56-98.09,20-145.28,18.61-28.71,40.23-32,47.72-60.66,6.32-24.16.05-56.63-16-63.46C444,342.36,343.69,446,296.39,561.66Z"/><path class="cls-3" d="M972.16,698.39c3.21-.83,6.49-1.46,9.62-2.52,26.81-9.15,54.69-11.21,82.69-12.41,7-.31,13.92,1.17,20.76,2.69,3.69.81,7.13,2.09,8.28,6.22s-1.72,6-4.77,7.63c-1.27.71-1.43,2.11-1.36,3.55,1.77,2.41,3.62.47,5.08-.29,14.79-7.65,29.3-15.76,43.45-24.58,21.2-13.2,36.69-31.69,49.66-52.54,6.68-10.73,11.25-12.06,21.82-5.3,6.44,4.13,10.14,10.52,13.49,17,23.42,45.67,44.43,92.38,59.18,141.68,17.07,57.06,35.2,113.82,48.38,172,7.58,33.5,12.68,67.38,16.86,101.43,3.85,31.4,8.2,62.76,11.11,94.25,3.65,39.5,5.6,79.12,1,118.75-.56,4.78-2.52,8.91-4.54,13.11-9.74,20.23-23.12,38.17-36.39,56.05-18.86,25.43-37,51.37-55,77.39-24,34.67-53.12,65-80.27,97-37.81,44.6-81.23,83.57-123.89,123.3-3.2,3-5.73,6.47-8.64,9.66-12.2,13.33-25.57,25.48-40.83,35.08-9.49,6-14.7,14.2-18,24.2-4.2,12.77-5.07,26.09-6.24,39.37-2.42,27.26-1.95,54.6-2.15,81.92-.23,31.31-.44,62.61,1.5,93.93,2.37,38.3,8.27,76.09,13.33,114.06,6.06,45.4,21.27,87.76,38.09,129.89,13.46,33.67,27.94,67,39.7,101.3,1,3,2.92,5.79,1.49,9.13-3.09-.29-3.45-2.37-4.22-4.11-17.42-39.59-36.7-78.36-53-118.46-12.65-31.17-24.21-62.61-30.16-96-13.93-78.31-21.17-157.08-18.71-236.66.71-23-.15-46,1.65-68.94,1.38-17.62,2.55-35.2,8.06-52-2.29-2.74-4.45-.94-6.45-.18a178.31,178.31,0,0,0-18.17,8.22q-57.92,30.12-122.85,22.5a67.15,67.15,0,0,1-29.87-10.67c-17.38-11.69-37-18-56.39-25-9.7-3.49-19.18-7.59-28.89-11-10.47-3.73-19.48-9.94-28.73-15.8-14.6-12-28-25.23-42.44-37.4-29.82-25.21-54.79-54.77-78.87-85.23-3.67-4.64-6.37-10.17-11.7-13.38Q536.45,1503,518,1478.76a923.91,923.91,0,0,1-69.7-107c-18.36-32.82-37.4-65.26-54.45-98.81-13.28-26.13-26.07-52.45-32.87-81.17-4.22-17.83-7.05-35.84-7.46-54.28-.32-14.28-2.26-28.46-.08-42.83,1.66-10.89,4-21.6,6.6-32.25,3-12.24,6.28-24.47,10.2-36.46,1.58-4.82.55-8-2-11.86-13.64-20.54-26.94-41.29-33.85-65.33-4-14.07-8.55-28-10.87-42.51-.55-3.41-2.19-6.15-3.73-9.12-8.76-16.82-17.44-33.67-21.44-52.48-2.36-11.13-.29-21.16,8.93-27.75,8.27-5.93,9.77-13.68,9.87-22.5.21-19.32.57-38.64.33-58-.62-51,8.41-100.59,20.81-149.87,7.84-31.19,19.5-60.7,32.78-89.81,7.39-16.21,18.59-26.58,45.17-18.69,12.13,3.6,21.76,11.31,30.78,19.83,2.66,2.51,5.27,5.07,7.9,7.6,11.47,15.14,22.2,30.84,30.12,48.11,23.56,51.39,51,100.91,73.29,152.92,2.67,6.25,2.87,6.42,9.49,3.54,21.07-9.18,42.84-16.36,64.79-23,3.79-1.16,7.45-2.75,11.16-4.13a25.86,25.86,0,0,0,2.94-.56c34.32-11,69.08-19.94,105.18-22.58,4.88-.36,6.76-2.52,6.69-7.67a309.71,309.71,0,0,1,3.68-49.78c3.31-7.48,9.61-11.22,17-13.68,3.39-1.13,6.73-2.43,10.09-3.66l28.4-6.93c1.14-2.5.08-4-.08-5.57-.68-7.08.34-9.54,6.81-11.22C855,553.28,884.3,541,916.33,539a373.41,373.41,0,0,1,58.8,1.43c14.57,1.4,29.15,2.71,43.72,4.05q28.06,6.75,56.16,13.48a74.06,74.06,0,0,1,17.7,6.62c9.49,5.05,9.93,6.5,4.7,16.72,13.67,8.58,27.36,17.51,34.78,32.85,3.47,14.17-2.4,23.72-14.73,30.26-5.88,3.12-11.51,6.67-17.29,10a71.75,71.75,0,0,1-33.25,9.49c-17.37.68-34.31,3.91-51.17,8-17.55,4.23-32.69,12.7-46.21,24.4-2.32,1.21-5.23,1.82-5.4,5.5C967.16,701.1,969.89,700.33,972.16,698.39ZM466,920.52l2.18-1.92a7.11,7.11,0,0,0,5.1-3.7c7.75-5.74,16.95-9.06,24.81-14.69-11.13-.39-19.42,5.27-27.13,12.2-2.23.89-3.76,2.32-3.82,4.91a2.23,2.23,0,0,0-2.07,2.16c-.43.45-1.32,1.16-1.23,1.31C464.65,922.21,465.33,921.28,466,920.52Zm471.95,367.92a4.34,4.34,0,0,0,2-4l.67-1.16-1.12.69a3.46,3.46,0,0,0-2.41,3.49,2.73,2.73,0,0,0-2.16,2.16,3.43,3.43,0,0,0-3.43,2.46l-.68,1,1.08-.62a3.9,3.9,0,0,0,4.09-2Zm15.4-.74a1.65,1.65,0,0,0-1.49,1.74,92,92,0,0,1-19.61,19.68c-3.85,2.87-5.3,6-5.08,10.85.48,10.34,2.51,20.39,4.53,30.46,2.83,14.1,12.62,22.44,27.62,24,2.59,2.43,6,3.13,9.19,3.3,17.55.9,33.41,10.72,51.33,9.55a12.84,12.84,0,0,1,3.9.73c27.7,7,48.13,22.07,55.53,51,3,11.55,5.85,23.18,7.71,34.94,2.54,16.07,3.37,32.17,1.3,48.58-1.31,10.42-4.12,20.91-2.6,31.64l.06-.1a2.12,2.12,0,0,0-1.83,2.47c-1.74,7.46-3.6,14.88-5.18,22.37-1.49,7.11-5.49,13.66-5.5,21.41,3-.45,4.12-2.24,5.5-3.59,36.08-35.51,73.59-69.59,105.66-109.06,21.42-26.36,45.49-50.55,64.71-78.73,27.59-40.45,57.4-79.36,83.67-120.72,5.7-9,11.56-18,12.45-29.07s1.78-21.9,2.25-32.87c1.08-25.69-.86-51.32-3.2-76.84-2.89-31.49-7.11-62.87-11-94.27-3.82-31.06-8.29-62-15-92.63-9.62-43.93-22.44-87-35.09-130.1-13.12-44.72-26.76-89.25-45.69-132-8.9-20.11-19.31-39.46-29-59.2-2.15-4.41-4.54-9-9.8-10.74-2.48.95-3.11,3.38-4.37,5.27-15.31,23-33.43,43.12-57.7,57.15-25.94,15-51.69,30.36-80.52,39.49A34.36,34.36,0,0,0,1049,736c-37.2,22.36-77.72,36.1-119.61,46.37-15.14,3.71-30.68,6.2-44.74,13.53-9.36,2.34-17.89,6.87-26.88,10.21-3.13,1.16-6.21,2.3-9.61,2.25-2.84,0-5.4-.67-6.42-3.63-1-2.75-.51-5.33,2.31-6.85a10.22,10.22,0,0,0,4.72-4.93c4.23-9.47,10.81-17.42,16.64-25.86a220.8,220.8,0,0,1,54.77-42.95,34.87,34.87,0,0,0,10.34-9.18c14.12-17.69,32.06-30.87,51-42.84a94.31,94.31,0,0,1,27.48-11.6c16.77-4.27,33.65-7.93,51-8.78,11.66-.57,23.23-1.91,33.59-8.15,6.27-3.78,12.71-7.27,18.92-11.14,9.31-5.82,9.82-8.75,3.74-18.46-.81-1.43-1.33-3.14-2.46-4.24-19.94-19.29-42.93-30.58-71.53-26.8-17.65.52-35.15,1.65-51.62,9.1-10.3,4.65-20.87,8.72-31.29,13.1-39,16.38-78.43,31.81-110.24,61.11a21.57,21.57,0,0,1-6.78,4.08c-4,1.55-7.8,1.12-10.79-2.57-1.15-1.42-1.35-3.91-4.8-4-10,5.2-20.61,10.66-31.17,16.3a48.21,48.21,0,0,1-25,5.8c-5-.19-9.93-2.19-10.35-7.53-.56-7-4.28-6.56-9.29-6.09-44,4.2-86.07,16.47-127.4,31.59-18.58,4-35.79,11.85-53.32,18.83-2.78,1.1-4.28,2.61-2.84,6,6.73,15.82,12.33,32.11,20.13,47.48,1.29,6.58,4.27,12.56,6.84,18.66,17.53,41.66,29.82,84.33,32.8,130,2.59,39.63-3.15,75.52-30.18,106.18-11.74,13.32-15.52,29.95-17.48,47-1.33,11.61-1.82,23.29,2.34,34.57,3.07,8.32,9.77,12.76,18.56,11.84a61,61,0,0,0,11.68-2.59c9.31-2.9,10.39-5.68,5.56-14-6.07-10.52-7.27-21.36-1.92-32.43,8.69-18,31.58-19.82,42.94-3.4,1.76,2.55,2.88,3.57,6.21,2.81a68.62,68.62,0,0,1,19.85-1.14c12.14.84,24-8.08,27.22-20.14a89.22,89.22,0,0,1,26.43-43.84c14.87-13.61,32.83-17.27,52-15,10.48,1.24,20.17,5.45,22.62,17.83.43,2.19,2.11,3.25,3.89,4.24,9.82,5.45,19.83,7.42,30.48,2.18,13.6-6.69,14.27-8.14,11.56-23.1-2.16-11.92-6.64-22.14-17.49-28.84-5.93-3.67-11.21-8.4-17.12-12.11-10.24-6.42-21.13-10.92-33.62-11.09A61.43,61.43,0,0,1,763,936.29c-10.06-5.2-20.14-10.3-29.39-16.84-13.22-9.35-28-15.17-43.28-20.1a54.52,54.52,0,0,1-6.61-2.21,5.43,5.43,0,0,1-3.43-5.59,5.87,5.87,0,0,1,4.19-5.12,20.82,20.82,0,0,1,12.78-.07c9.87,3.06,19.64,6.51,28.46,12,10.76,6.65,22,12.61,32.58,19.38a72,72,0,0,0,33.45,11.66c15.34,1.28,28.93,7.31,41.39,16,6.81,4.77,13.18,10.2,20.12,14.78,9,5.92,13.38,14.67,16,24.48a180.11,180.11,0,0,1,3.78,19.59c1.21,7.94-1.3,14.58-8.28,18.92-5.07,3.16-10.19,6.53-15.74,8.54-4.6,1.65-6.28,4.53-6.85,8.65-1.22,8.9-3,17.83-2.2,26.84,1.61,19.15,5.91,37.45,18.85,52.59,4.31,8.31,10.44,15.26,16.68,22.11,2.28,2.5,5.17,4,8.21,5.44,22.46,10.62,45,21,66.27,34a132.94,132.94,0,0,0,25.77,12.69c5.22,3.93,9.23,8.56,9.17,15.6,0,1.84,1.07,2.79,2.68,3.7,7.83,4.41,8.28,5.64,3.56,13.32-4.16,6.76-8.88,13.17-13.35,19.74-9,11.69-15.74,24.65-22.28,37.77l.11-.17c-1.8.67-2.27,2.2-2.52,3.87Zm-67.77,32.36c.58-.6,2.46.76,2.06-1.35l-2,1.37c-1,.33-1.14.64-.49.77C885.19,1320.87,885.4,1320.34,885.56,1320.06Zm21.85-12.15-2.69,1c.2.25.38.69.61.72a2.22,2.22,0,0,0,2.35-1.41,2.59,2.59,0,0,0,2.19-1.79l2.62-1c-.3-.38-.58-1.08-.91-1.1a2.27,2.27,0,0,0-2.24,1.56A2.46,2.46,0,0,0,907.41,1307.91ZM362.48,858c-1.79.47-3.19,2-1.82,3.24s2.73-.2,3-2.05l2.28-2.75c5.07-4.28,10-8.76,15.23-12.8a812,812,0,0,1,106-69.47,160,160,0,0,1,15.3-7.3c14.52-6,14.57-5.91,9.27-21.1-.19-.56-.82-1-1.26-1.43a415,415,0,0,0-66.22,30.35c-34.27,19.22-60.73,46.22-80,80.36Zm515.08,466.07a13.18,13.18,0,0,0-10,5c4-.43,7.77-1.33,10.09-4.93.68-.57,2.84.8,2.06-1.43C879.52,1322.27,878.06,1323.19,877.56,1324.05Zm16.16-555.84a32.08,32.08,0,0,0-16.89,16.28c14.07-1.89,14.41-2.2,16.8-15.44a3.4,3.4,0,0,0-.1-1c1-.88.65.94.82-.38a1.4,1.4,0,0,0-.06-.59C893.51,767.07,893.32,767.46,893.72,768.21ZM608.35,1387.7c17.11,1.52,33.79-1.52,51.24-4-2.48-2.42-4.79-2.82-6.89-3.7-11.35-4.73-23.25-7.34-35.22-10-9.73-2.12-10.64-2.27-15.45,6.29-1.28,2.28-2.88,4.49-2.72,7.33-1.9,2.32-.17,3.56,1.64,3.9C603.34,1388,605.88,1387.67,608.35,1387.7Zm411.3,257.81c1.14,2.72,2.32,1.08,3.49,0,5.33-4.49,10.45-9.26,16.05-13.37a42.12,42.12,0,0,0,13.16-16,183.91,183.91,0,0,0,15.11-44.09c6.36-22.14,9-44.93,9.65-67.76.63-23.71-4.57-46.86-12.29-69.28-7-20.44-23.84-29.28-43.12-34.78-.8-.23-1.82.3-4,.7,5.94,5.9,11.16,11.36,16.67,16.5,7.31,6.81,11.77,15.42,14.7,24.61,4.85,15.23,7.16,31.06,8.27,47,1.49,21.33-1.32,42.39-4.72,63.44-1.85,11.47-5.27,22.57-6.89,34a14.94,14.94,0,0,0-1.69,3.58C1040.44,1610.6,1030.12,1628.09,1019.65,1645.51Zm-6.78-1086.92c4,2.44,8.16,1.61,12.33.44-3.9-.58-7.24-3.55-11.38-2.46-18.56-1.6-37.12-3.13-55.67-4.83-34.68-3.19-68.3,1.71-101.12,13-8.1,2.79-16.24,5.42-24.37,8.13,6.14-.07,11.81-1.78,17.57-3,29.36-6.06,59.15-8.87,88.9-12.09C963.81,555.12,988.29,558.65,1012.87,558.59ZM711.14,1279.67l9.4,1.35c42.59.91,82-8.3,115.92-36.46-3-1.73-5.13-.5-7.29-.06-5.91.58-11.83,1.13-17.74,1.75-25.08,2.67-49.76,7.14-73.44,16.14-14.38,3.68-27.4,10.61-40.62,17.28ZM911.43,1322l.15-.09c-3.35-.59-5.6,1.76-8.1,3.22A332.17,332.17,0,0,1,866,1343.64c-28.77,12.26-58.75,21-88.41,30.7-17,5.57-34.47,9.21-52.18,12-18.31,2.88-36.82,4.7-54.87,9.19-10.56,1.23-21.12,2.43-31.67,3.68-12.57,1.48-25.18,2.25-37.79,1-10.85-1.08-14.6-5.24-15.27-15.72-.19-3-.58-5.94-.88-8.9a28.7,28.7,0,0,0,.14-5c-2.44-16.79.4-33,4.09-49.39,3.25-14.35,8-28.15,12.79-42,11.79-34.32,24.34-68.34,43.05-99.71a63.48,63.48,0,0,1,14.84-17.32c3-2.44,6.45-3.94,10.18-2.51,10.54,4,21.09,2.08,31.51,0,15.19-3,29.61-7.83,40.64-19.62,5-5.35,11.32-7.62,18.65-8.33,20.34-2,40.56-.26,60.77,1.54,11,1,21.86,2.63,33.81,4.1l-15.23-22.21c-12.2-25.67-15.56-52.49-9.21-80.2-7.32-2.17-13.69-3.21-19-6.74-3.74-2.48-6.38-1.85-9.62,1-4.29,3.76-9.68,5.73-15.14,7.35-13.21,3.92-26.78,4.91-40.44,5.27-5.39.14-10.11-1.84-14.35-5.15a44.77,44.77,0,0,0-7.84,18.79c-1.79,10.41-7.66,17.21-16.08,22.84-8,5.37-16.31,8.66-26.19,7.48-10.75-1.29-20.28,1.67-28.76,8.65-8.16,6.71-17.07,17.11-21.46,26.35-1.32,2.76-2.95,5.51-5.45,7-11.66,7.07-23.94,11.33-37.82,7.07-9.73-3-15.25-10.09-19.1-19,.18-3.43-1-6.6-2.39-9.58-4.22-9.42-4.92-19.26-3.57-29.24.94-6.86,2.7-13.61,4.09-20.41,6.44-15.4,15.47-29.13,25.74-42.29,11.38-14.59,18.9-31.1,20.7-49.9,2.46-25.67-.32-51.13-3.86-76.39-3.6-25.72-12.48-50.16-21.9-74.3-1.78-4.57-2.81-9.56-6.26-13.38.26-3.85-1.94-7-3.27-10.3-7-17.56-14.27-35-21.44-52.55-3.32-8.11-3.33-8.11-12-5.12-2.82,1-5.64,2-8.48,2.88-4.09,1.31-9.63,1.11-11.86,4.39-2.64,3.91,1,8.77,2,13.2,2.82,13.54.49,18.3-12.42,22.75a134.7,134.7,0,0,0-25.29,11.62c-18.81,11.25-37.93,22.06-56.17,34.18a524.4,524.4,0,0,0-48,35.49c-3.36,1.67-5.67,4.56-8.28,7.1-10,9.74-18.61,20.88-28.41,30.63-6.75,6.73-7.86,13-7.27,21.06a75.93,75.93,0,0,0,1.89,11.77c6.31,27.33,20.07,51.17,34.78,74.55,3.89,6.18,5.95,5.93,9.73-.3,7-11.61,12.19-24.3,20.07-35.45,4-2.65,6.32-6.75,8.8-10.66q9.87-15.62,19.59-31.31c11.38-18.36,26.53-32.35,46.72-40.52,7.09-2.86,14.22-5.61,21.37-8.32,7.58-2.87,15.44-3.41,23.51-3.64,14.7-.41,29.16,2.8,43.83,2.3,4.35,2.29,9.1,1.31,13.68,1.62,3,.2,5.09,1.47,5.9,4.39.72,2.56-.51,4.53-2.43,6.07-2.07,1.66-4.24,3.2-6.37,4.77a67.3,67.3,0,0,0-14.94,14.43,62.87,62.87,0,0,0-5.26,4.49,129.75,129.75,0,0,1-41.38,29.09q-40.46,18.3-79.61,39.25c-9,4.81-18.34,9.29-25.93,16.43-1.89,1.85-3.69,3.81-5.69,5.53-20.25,17.47-32,39.63-36.54,65.83-2.23,12.83-2.48,25.84-4,38.72-2.52,20.92-3.47,41.69.66,62.6,4.06,20.54,7.54,40.94,16.52,60.37,17.06,36.91,35.93,72.8,56.23,108,11.65,20.18,22.3,40.9,34.56,60.75,22.07,35.76,46.48,69.85,71.82,103.3,4.2,5.55,8.13,11.41,13.92,15.57,15.29,20.48,31.13,40.5,48.61,59.2,9.06,9.7,17.25,20.2,27.25,29,12.44,11,24.67,22.21,37.24,33,6,5.17,11.55,11,19,14.28,11.64,12.69,27.7,16.75,43.16,22.36-10.35-10.72-16.09-23.5-18.91-37.72-1.22-6.15-2.28-12.33-3.41-18.49q-.14-10.62-.29-21.22c2.15-11.79,4.19-23.6,6.47-35.35,6.74-34.59,21.17-65.07,47.77-89,5.69-5.13,11.41-10.22,17-15.41,36.24-33.39,79.23-51.94,127.76-58.49,8.57-1.16,17.07-2.86,25.6-4.32,3.87-.66,7.49-2.42,8-6.39.41-3.22-3.67-3.32-5.88-4.44-12.72-6.48-20.8-16.23-22.88-30.67-1.47-10.19-3.28-20.34-4.94-30.5-.29-1.35-1.26-1.18-2.19-.9C911.36,1320.68,911.16,1321.28,911.43,1322ZM369.58,792.16c-11.59,4.34-21.74,11.3-32.23,17.66-3.42,2.08-4.08,4.77-3.78,8.34,1.16,13.59,2.18,27.18,3.31,40.77.47,5.74,1.08,11.48,1.65,17.44,2.63-1,2.93-2.27,3.31-3.51,4.35-14.17,12-26.59,20.43-38.62,4.57-6.51,9-13.1,13.54-19.66,17.84-20,37.92-37.22,61.31-50.44a436.51,436.51,0,0,1,59.37-28.24c2.24-.85,5.77-.72,6.78-4.66-10.41,0-19.56,2.65-28.48,6.41C438.26,753,404.06,772.85,369.58,792.16Zm-3.84-13.62c10.63-4,20.22-10,30-15.55a786.77,786.77,0,0,1,71.19-35.81,111.06,111.06,0,0,1,30.56-8.69c7-.91,13.26-.13,18.24,5.42,1.56,1.73,3,3.56,5.88,2.67,9.07-2.85,18.58-4.49,27.26-9.52-1.64-4.09-3-7.84-4.6-11.46-21.84-48.84-47.33-95.92-69.67-144.52A135.29,135.29,0,0,0,467.16,547c-6.56-10.72-12.18-22.1-21.33-31-9.58-12.3-20.85-22.37-36.23-26.71-13.12-3.71-20.35-.75-26.09,11.33-11.72,24.64-23.07,49.45-29.43,76.17-2.55,10.68-5,21.39-7.85,32-16.17,59.21-18.45,119.48-14,180.28.18,2.42-.54,5.31,2.53,7.22Zm466.05,451.89c13.65-.44,27.21-1.94,40.74-3.62,27.77-3.44,54.57-12.19,82.43-15.13,2.72-.29,5.33-1.58,8.78-2.65a54.75,54.75,0,0,0-15.17-11.5c-14.59-8-29.14-16-43.09-25.18-21-13.74-44.58-20.53-69.05-24.58-17.12-2.83-34.46-3-51.71-4.2-11-.78-20.18,2.22-28.72,8.42-16.49,12-35.37,18.44-54.86,23.06-9.62,2.28-19.54,4.48-29.64,2.39-9.78-2-11-1.68-15.63,6.78-22.38,40.61-42.07,82.35-52.63,127.82-2.21,9.49-5.1,18.89-5.47,30.55,6.41-6.75,11.74-12.12,16.79-17.73,13.4-14.86,27.4-29.08,43.14-41.49,4.19-3.31,8.36-6.48,13.43-8.5,35.84-14.24,71-30.36,109.33-37.45,4.2-.53,8.43-.93,12.61-1.61C805.94,1233.72,819.1,1233.75,831.79,1230.43Zm193.76,373.82c2.15.74,1.58-1.07,1.92-2,3-5.66,3.25-12.12,5.14-18.11,7.43-23.55,10.48-48,12.47-72.37,1.45-17.83-1.51-35.65-4.74-53.35-2.82-15.42-9.45-28.15-21.36-38.26-6.32-5.38-12.61-10.81-18.68-16.47-3.18-3-6.61-3.84-10.85-3.8-7,.07-13.79,1.9-20.74,2.51a277.59,277.59,0,0,0-38.32,5.59c-5.26.75-10.56,1.33-15.78,2.3-25.88,4.83-51.48,10.57-74.84,23.51-26.79,14.84-49.55,34.72-70.68,56.57A119.13,119.13,0,0,0,743,1532.44c-5.12,13.82-7.88,28.15-11.23,42.38-3.78,16.08-4.16,32.26-2.21,48.62,2.55,21.3,11.25,38.79,30,50.4,6.22,3.85,12.49,7.66,18.47,11.88,14.6,10.28,31.33,14.52,48.56,16.65a380.89,380.89,0,0,0,73.74,1.82c20.28-1.43,39.22-7.43,57-16.88,32.32-17.21,52.58-45.2,67.59-77.62.77-1.66,1.85-3.54.87-5.6Zm-410-243.45c18.37-.66,33.1,6.93,48.67,11.51,13.75,4,28,6,42.39,2.92,8.46-1.8,16.8-4.1,25.18-6.24,44.12-11.28,85.06-30.58,126-49.84,13.85-6.52,27.79-12.8,40.67-21.25,22.93-15.07,43.25-33.2,62.55-52.54,4.46-4.47,8.41-9.45,12.44-14.31,1.56-1.88,3.16-3.92,3.12-7.16-1.9.29-3.28.21-4.43.7-19.46,8.27-40.33,11.17-60.68,16.05a75.73,75.73,0,0,1-18.8,2.15,40.56,40.56,0,0,0-13.63,2.39c-17.77,5.92-34.64,13.61-50.23,24.13a104.92,104.92,0,0,1-37.44,16c-11.38,2.34-22.83,4.49-34.25,6.75-9.75,1.93-19.51,5-29.58,3-25.57-5-47.31,3.43-66.8,19.05a312.1,312.1,0,0,0-30,27.83C625.66,1347.26,620.66,1352.55,615.54,1360.8Zm396-789.89c-16.23-.47-32.37-3.31-48.74-3.13-20.71.23-41.2,2.8-61.69,5-18.48,2-37,4.67-55,9.52-11.42,3.07-11.37,3.18-9.4,14.52.46,2.62.59,5.29,1,7.91,1.81,11.05,1.83,22.28,2.41,33.15,4.36,1.09,6.67-1.31,9.29-2.46q49.24-21.83,98.44-43.83C968.29,582.56,989.51,576.08,1011.58,570.91ZM827.51,633.3a342.39,342.39,0,0,0-4-38.85c-.53-3.2-1-5.84-5.5-4.84-13.3,3-26.49,6.29-39.23,11.2a9.75,9.75,0,0,0-6.35,8.3c-1.76,13.85-3.23,27.72-4.8,41.59-.48,4.23,1,6.36,5.61,5.3,13.64-3.15,27.55-4,41.46-5.18,12.57-1.08,13.12-2.46,12.8-14.71C827.49,635.11,827.51,634.12,827.51,633.3Zm216.9,89.2c15.31-6,25.33-14.26,28.56-24-14.15-.18-27.56,2.5-41,5.63C1034.58,712,1041.52,715.88,1044.41,722.5ZM801.84,663.76c-11.13,1.92-20,3.39-28.76,5-2.45.45-4.48,1.54-3.76,4.69.62,2.7,2.78,2.47,4.73,2.41C784.05,675.51,792.35,671.26,801.84,663.76Zm-249.67,240,16.68-17.19-20.46-1.95C549.82,890.76,552.54,895.68,552.17,903.72ZM316.71,859.24c1.16-10.3-1.07-20.26-2.77-30.27C306.77,839.85,312.9,849.43,316.71,859.24Zm701.73,790.08.39-.57-.55-.09Z"/></svg>