<svg xmlns="http://www.w3.org/2000/svg" viewBox="0 0 1966.07 1741.39"><defs><style>.cls-1{fill:#5f003d;}.cls-2{fill:#b06c49;}</style></defs><g id="Layer_5" data-name="Layer 5"><path class="cls-1" d="M896.12,875.39c85.8,380.74-165.48,756.89-275.29,756.85-33.57,0-59.56-34.73-131.94-31.43-55,2.51-85.94,24.62-120,8.45-24.23-11.5-13.61-25.08-45.68-51.09-36.78-29.83-67.79-25.8-80.87-52.61-7.66-15.7-.64-24.51-1.07-42.93-1.59-67.82-99.81-78-130.88-157.5-15-38.42,8-35.87-6-95.33-18.31-77.71-58.73-86.89-56.84-143.18,1.7-50.73,35.13-61.44,24.13-99.33-12.25-42.17-56.88-40-65.56-80.4C-1.7,850.58,32.55,840.61,34,788c1.29-47-25.67-55.88-13.72-87.59C33.39,665.64,69.69,666,78.93,633c8.86-31.71-22.17-40.54-16.35-75.94,5-30.13,28.54-30.53,61.38-81.76,27.86-43.45,19.28-56.26,43.32-74.14,26.66-19.82,43.47-8.72,81.82-27.7,42.92-21.24,44.22-46.18,73.72-63.67,51.44-30.5,127.07.11,159.3,8.62C816.07,406.6,887.73,838.15,896.12,875.39Z"/><path class="cls-1" d="M1954.24,842.16c12.06,61.9,21.46,113.92-6.11,158.86-16.69,27.22-33.84,30.49-48.87,64.62-18.11,41.11-3.27,59.21-13.5,92.72C1867.28,1219,1802.6,1213,1749.13,1274c-58.89,67.15-14.73,113.44-63,172.85-70.13,86.27-176,4.33-301.57,93.71-77,54.82-92.17,124.78-180.76,144,0,0-39.1,8.48-86-.35-160.37-30.18-909-426.57-836.43-842,29.94-171.32,188.9-285.18,220.77-521,2.9-21.46,8.08-68.57,39.83-116.42C611.25,100.31,753.3,74.78,784.43,70.77c30.71-4,51.94-3.51,51.94-3.51,34.51.73,47.14,7.14,76.81,5.84a202.84,202.84,0,0,0,51.61-9.33c83.42-24.87,87.81-61.29,153-63.65,57.84-2.09,138.91,23.51,184,75.91,7.65,8.88,11.28,15.08,21.45,21.44,44.41,27.81,87-20.34,142-12.29,63.82,9.34,55.87,81.49,149.06,134.85,66.45,38,93.72,14.66,124.5,51.6,43.13,51.78.55,110.91,47.07,165.93,32.59,38.53,62.65,20.36,91.92,58.21,34,43.94,2.78,80.46,18.38,174.64C1909.41,750.16,1935,743.61,1954.24,842.16Z"/><path class="cls-2" d="M419.36,425.12c78.86-80.83,177.88-101.44,291.07-125,91.33-19,152.17-31.66,223.66-12.25,129.42,35.13,197.68,149.28,278.8,284.93C1260.26,652,1332.11,791.51,1363,980.3c20.77,126.83,39,237.92-15.32,355.41-25.3,54.77-62.14,93.42-134.81,168.51-140.68,145.37-211,218-284.93,232.85-239.36,47.91-469.63-316.46-511.66-383-77.07-121.95-75.18-203.74-74.22-223.41,2.16-44.2,13.38-56.88,16-107.48,5-96.25-30.5-148.6-47.12-211.09C276.12,681.1,327.77,519,419.36,425.12Z"/><path class="cls-1" d="M1325.64,739.58c-24.22,21.75-104.29-36.7-175.3-22-8.87,1.84-39.89,6.68-79.17.42a79.22,79.22,0,0,1-19.69-6c-46.29-20.46-47.74-60.75-83-65.27-30.4-3.9-36.4,25.11-78.6,29.78-44.35,4.91-83.67-22-95.72-31.2-42.43-32.23-32.59-61-75.71-88.32-30.24-19.17-42.08-9.49-62.37-28.85-26.57-25.37-13.65-49.07-33.68-89-28.09-55.94-75.12-52.37-89.84-94.31-14.61-41.59,15.9-89.91,35.4-110.65,83.58-88.87,315.91-40,472.2,58.07C1268.62,435.73,1365.62,703.7,1325.64,739.58Z"/></g></svg>